<svg width="35" height="35" viewBox="0 0 35 35" fill="none" xmlns="http://www.w3.org/2000/svg">
<path d="M27.7084 4.22917H26.2501V2.77084C26.2501 1.89584 25.6667 1.31251 24.7917 1.31251C23.9167 1.31251 23.3334 1.89584 23.3334 2.77084V4.22917H11.6667V2.77084C11.6667 1.89584 11.0834 1.31251 10.2084 1.31251C9.33341 1.31251 8.75008 1.89584 8.75008 2.77084V4.22917H7.29175C4.81258 4.22917 2.91675 6.12501 2.91675 8.60417L2.91675 29.0208C2.91675 31.5 4.81258 33.3958 7.29175 33.3958H27.7084C30.1876 33.3958 32.0834 31.5 32.0834 29.0208V8.60417C32.0834 6.27084 30.1876 4.22917 27.7084 4.22917ZM10.2084 27.5625C9.33341 27.5625 8.75008 26.9792 8.75008 26.1042C8.75008 25.2292 9.33341 24.6458 10.2084 24.6458C11.0834 24.6458 11.6667 25.2292 11.6667 26.1042C11.6667 26.9792 11.0834 27.5625 10.2084 27.5625ZM10.2084 21.7292C9.33341 21.7292 8.75008 21.1458 8.75008 20.2708C8.75008 19.3958 9.33341 18.8125 10.2084 18.8125C11.0834 18.8125 11.6667 19.3958 11.6667 20.2708C11.6667 21.1458 11.0834 21.7292 10.2084 21.7292ZM17.5001 27.5625C16.6251 27.5625 16.0417 26.9792 16.0417 26.1042C16.0417 25.2292 16.6251 24.6458 17.5001 24.6458C18.3751 24.6458 18.9584 25.2292 18.9584 26.1042C18.9584 26.9792 18.3751 27.5625 17.5001 27.5625ZM17.5001 21.7292C16.6251 21.7292 16.0417 21.1458 16.0417 20.2708C16.0417 19.3958 16.6251 18.8125 17.5001 18.8125C18.3751 18.8125 18.9584 19.3958 18.9584 20.2708C18.9584 21.1458 18.3751 21.7292 17.5001 21.7292ZM24.7917 27.5625C23.9167 27.5625 23.3334 26.9792 23.3334 26.1042C23.3334 25.2292 23.9167 24.6458 24.7917 24.6458C25.6667 24.6458 26.2501 25.2292 26.2501 26.1042C26.2501 26.9792 25.6667 27.5625 24.7917 27.5625ZM24.7917 21.7292C23.9167 21.7292 23.3334 21.1458 23.3334 20.2708C23.3334 19.3958 23.9167 18.8125 24.7917 18.8125C25.6667 18.8125 26.2501 19.3958 26.2501 20.2708C26.2501 21.1458 25.6667 21.7292 24.7917 21.7292ZM29.1667 12.9792H5.83341V8.60417C5.83341 7.72917 6.41675 7.14584 7.29175 7.14584H8.75008V8.60417C8.75008 9.47917 9.33341 10.0625 10.2084 10.0625C11.0834 10.0625 11.6667 9.47917 11.6667 8.60417V7.14584H23.3334V8.60417C23.3334 9.47917 23.9167 10.0625 24.7917 10.0625C25.6667 10.0625 26.2501 9.47917 26.2501 8.60417V7.14584H27.7084C28.5834 7.14584 29.1667 7.72917 29.1667 8.60417V12.9792Z" fill="white"/>
</svg>
