<svg width="32" height="32" viewBox="0 0 32 32" fill="none" xmlns="http://www.w3.org/2000/svg">
<path d="M16 0C7.2 0 8.34465e-08 7.2 8.34465e-08 16C8.34465e-08 19.68 1.28 23.2 3.68 26.08L0.48 29.28C-0.16 29.92 -0.16 30.88 0.48 31.52C0.8 31.84 1.12 32 1.6 32H16C24.8 32 32 24.8 32 16C32 7.2 24.8 0 16 0ZM9.6 17.6C8.64 17.6 8 16.96 8 16C8 15.04 8.64 14.4 9.6 14.4C10.56 14.4 11.2 15.04 11.2 16C11.2 16.96 10.56 17.6 9.6 17.6ZM16 17.6C15.04 17.6 14.4 16.96 14.4 16C14.4 15.04 15.04 14.4 16 14.4C16.96 14.4 17.6 15.04 17.6 16C17.6 16.96 16.96 17.6 16 17.6ZM22.4 17.6C21.44 17.6 20.8 16.96 20.8 16C20.8 15.04 21.44 14.4 22.4 14.4C23.36 14.4 24 15.04 24 16C24 16.96 23.36 17.6 22.4 17.6Z" fill="white"/>
</svg>
