<svg width="32" height="32" viewBox="0 0 32 32" fill="none" xmlns="http://www.w3.org/2000/svg">
<path d="M16 0C7.2 0 8.34465e-08 7.2 8.34465e-08 16C8.34465e-08 19.68 1.28 23.2 3.68 26.08L0.48 29.28C-0.16 29.92 -0.16 30.88 0.48 31.52C0.8 31.84 1.12 32 1.6 32H16C24.8 32 32 24.8 32 16C32 7.2 24.8 0 16 0ZM17.6 20.8C17.6 21.76 16.96 22.4 16 22.4C15.04 22.4 14.4 21.76 14.4 20.8V16C14.4 15.04 15.04 14.4 16 14.4C16.96 14.4 17.6 15.04 17.6 16V20.8ZM16 12.8C15.04 12.8 14.4 12.16 14.4 11.2C14.4 10.24 15.04 9.6 16 9.6C16.96 9.6 17.6 10.24 17.6 11.2C17.6 12.16 16.96 12.8 16 12.8Z" fill="#4C7DFE"/>
</svg>
