<svg width="35" height="35" viewBox="0 0 35 35" fill="none" xmlns="http://www.w3.org/2000/svg">
<path d="M31.0625 14L28.2916 13.125L29.6041 10.5C29.8958 9.91663 29.75 9.18746 29.3125 8.74996L26.25 5.68746C25.8125 5.24996 25.0833 5.10413 24.5 5.39579L21.875 6.70829L21 3.93746C20.8541 3.35413 20.2708 2.91663 19.6875 2.91663L15.3125 2.91663C14.7291 2.91663 14.1458 3.35413 14 3.93746L12.9791 6.70829L10.3541 5.39579C9.91663 5.10413 9.18746 5.24996 8.74996 5.68746L5.68746 8.74996C5.24996 9.18746 5.10413 9.91663 5.39579 10.3541L6.70829 12.9791L3.93746 14C3.35413 14.1458 2.91663 14.7291 2.91663 15.3125L2.91663 19.6875C2.91663 20.2708 3.35413 20.8541 3.93746 21L6.70829 21.875L5.39579 24.5C5.10413 25.0833 5.24996 25.8125 5.68746 26.25L8.74996 29.3125C9.18746 29.75 9.91662 29.8958 10.5 29.6041L13.125 28.2916L14 31.0625C14.1458 31.6458 14.7291 32.0833 15.3125 32.0833H19.6875C20.2708 32.0833 20.8541 31.6458 21 31.0625L21.875 28.2916L24.5 29.6041C25.0833 29.8958 25.6666 29.75 26.25 29.3125L29.3125 26.25C29.75 25.8125 29.8958 25.0833 29.6041 24.5L28.2916 21.875L31.0625 21C31.6458 20.8541 32.0833 20.2708 32.0833 19.6875V15.3125C32.0833 14.7291 31.6458 14.1458 31.0625 14ZM17.5 21.875C15.0208 21.875 13.125 19.9791 13.125 17.5C13.125 15.0208 15.0208 13.125 17.5 13.125C19.9791 13.125 21.875 15.0208 21.875 17.5C21.875 19.9791 19.9791 21.875 17.5 21.875Z" fill="#4C7DFE"/>
</svg>
