<svg width="35" height="35" viewBox="0 0 35 35" fill="none" xmlns="http://www.w3.org/2000/svg">
<path d="M31.0626 14L28.2917 13.125L29.6042 10.5C29.8959 9.91663 29.7501 9.18746 29.3126 8.74996L26.2501 5.68746C25.8126 5.24996 25.0834 5.10413 24.5001 5.39579L21.8751 6.70829L21.0001 3.93746C20.8542 3.35413 20.2709 2.91663 19.6876 2.91663L15.3126 2.91663C14.7292 2.91663 14.1459 3.35413 14.0001 3.93746L12.9792 6.70829L10.3542 5.39579C9.91675 5.10413 9.18758 5.24996 8.75008 5.68746L5.68758 8.74996C5.25008 9.18746 5.10425 9.91663 5.39591 10.3541L6.70841 12.9791L3.93758 14C3.35425 14.1458 2.91675 14.7291 2.91675 15.3125L2.91675 19.6875C2.91675 20.2708 3.35425 20.8541 3.93758 21L6.70841 21.875L5.39591 24.5C5.10425 25.0833 5.25008 25.8125 5.68758 26.25L8.75008 29.3125C9.18758 29.75 9.91675 29.8958 10.5001 29.6041L13.1251 28.2916L14.0001 31.0625C14.1459 31.6458 14.7292 32.0833 15.3126 32.0833H19.6876C20.2709 32.0833 20.8542 31.6458 21.0001 31.0625L21.8751 28.2916L24.5001 29.6041C25.0834 29.8958 25.6667 29.75 26.2501 29.3125L29.3126 26.25C29.7501 25.8125 29.8959 25.0833 29.6042 24.5L28.2917 21.875L31.0626 21C31.6459 20.8541 32.0834 20.2708 32.0834 19.6875V15.3125C32.0834 14.7291 31.6459 14.1458 31.0626 14ZM17.5001 21.875C15.0209 21.875 13.1251 19.9791 13.1251 17.5C13.1251 15.0208 15.0209 13.125 17.5001 13.125C19.9792 13.125 21.8751 15.0208 21.8751 17.5C21.8751 19.9791 19.9792 21.875 17.5001 21.875Z" fill="white"/>
</svg>
