<svg width="37" height="37" viewBox="0 0 37 37" fill="none" xmlns="http://www.w3.org/2000/svg">
<path d="M16.9583 18.3459V26.2084C16.9583 26.6173 17.1208 27.0095 17.4099 27.2986C17.699 27.5877 18.0911 27.7501 18.5 27.7501C18.9089 27.7501 19.301 27.5877 19.5901 27.2986C19.8792 27.0095 20.0417 26.6173 20.0417 26.2084V18.3459C21.9133 17.9639 23.5764 16.9005 24.7086 15.3619C25.8407 13.8233 26.3613 11.9192 26.1693 10.0186C25.9773 8.11803 25.0864 6.35645 23.6694 5.07538C22.2524 3.79431 20.4102 3.08502 18.5 3.08502C16.5898 3.08502 14.7476 3.79431 13.3306 5.07538C11.9136 6.35645 11.0227 8.11803 10.8307 10.0186C10.6387 11.9192 11.1592 13.8233 12.2914 15.3619C13.4236 16.9005 15.0867 17.9639 16.9583 18.3459ZM24.9904 22.2309C24.788 22.1884 24.5791 22.1862 24.3758 22.2244C24.1725 22.2626 23.9787 22.3405 23.8055 22.4536C23.6322 22.5667 23.483 22.7128 23.3662 22.8835C23.2495 23.0543 23.1675 23.2464 23.125 23.4489C23.0825 23.6513 23.0803 23.8602 23.1185 24.0635C23.1567 24.2668 23.2345 24.4606 23.3476 24.6338C23.4607 24.807 23.6068 24.9563 23.7776 25.073C23.9484 25.1898 24.1405 25.2718 24.3429 25.3143C27.8425 26.008 29.2917 27.2568 29.2917 27.7501C29.2917 28.6443 25.5146 30.8334 18.5 30.8334C11.4854 30.8334 7.70833 28.6443 7.70833 27.7501C7.70833 27.2568 9.1575 26.008 12.6571 25.2526C12.8595 25.2101 13.0516 25.1281 13.2224 25.0114C13.3932 24.8946 13.5393 24.7454 13.6524 24.5721C13.7655 24.3989 13.8433 24.2051 13.8815 24.0018C13.9197 23.7985 13.9175 23.5896 13.875 23.3872C13.8325 23.1847 13.7505 22.9926 13.6338 22.8219C13.517 22.6511 13.3677 22.505 13.1945 22.3919C13.0213 22.2788 12.8275 22.2009 12.6242 22.1627C12.4209 22.1245 12.212 22.1268 12.0096 22.1693C7.32292 23.2484 4.625 25.268 4.625 27.7501C4.625 31.8047 11.6087 33.9168 18.5 33.9168C25.3912 33.9168 32.375 31.8047 32.375 27.7501C32.375 25.268 29.6771 23.2484 24.9904 22.2309Z" fill="white"/>
</svg>
