<svg width="25" height="31" viewBox="0 0 25 31" fill="none" xmlns="http://www.w3.org/2000/svg">
<path d="M16.875 12.5833C14.3959 12.5833 12.5 10.6875 12.5 8.20832V0.916656H5.20837C2.72921 0.916656 0.833374 2.81249 0.833374 5.29166L0.833374 25.7083C0.833374 28.1875 2.72921 30.0833 5.20837 30.0833H19.7917C22.2709 30.0833 24.1667 28.1875 24.1667 25.7083V12.5833H16.875ZM8.12504 9.66666H9.58337C10.4584 9.66666 11.0417 10.25 11.0417 11.125C11.0417 12 10.4584 12.5833 9.58337 12.5833H8.12504C7.25004 12.5833 6.66671 12 6.66671 11.125C6.66671 10.25 7.25004 9.66666 8.12504 9.66666ZM16.875 24.25H8.12504C7.25004 24.25 6.66671 23.6667 6.66671 22.7917C6.66671 21.9167 7.25004 21.3333 8.12504 21.3333H16.875C17.75 21.3333 18.3334 21.9167 18.3334 22.7917C18.3334 23.6667 17.75 24.25 16.875 24.25ZM16.875 18.4167H8.12504C7.25004 18.4167 6.66671 17.8333 6.66671 16.9583C6.66671 16.0833 7.25004 15.5 8.12504 15.5H16.875C17.75 15.5 18.3334 16.0833 18.3334 16.9583C18.3334 17.8333 17.75 18.4167 16.875 18.4167ZM16.875 9.66666H23.2917L15.4167 1.79166V8.20832C15.4167 9.08332 16 9.66666 16.875 9.66666Z" fill="#4C7DFE"/>
</svg>
