<svg width="31" height="33" viewBox="0 0 31 33" fill="none" xmlns="http://www.w3.org/2000/svg">
<path d="M25.7084 3.22918H24.2501V1.77085C24.2501 0.895849 23.6667 0.312515 22.7917 0.312515C21.9167 0.312515 21.3334 0.895849 21.3334 1.77085V3.22918L9.66675 3.22918V1.77085C9.66675 0.895849 9.08341 0.312515 8.20841 0.312515C7.33341 0.312515 6.75008 0.895849 6.75008 1.77085V3.22918H5.29175C2.81258 3.22918 0.916748 5.12501 0.916748 7.60418L0.916748 28.0208C0.916748 30.5 2.81258 32.3958 5.29175 32.3958H25.7084C28.1876 32.3958 30.0834 30.5 30.0834 28.0208V7.60418C30.0834 5.27085 28.1876 3.22918 25.7084 3.22918ZM8.20841 26.5625C7.33341 26.5625 6.75008 25.9792 6.75008 25.1042C6.75008 24.2292 7.33341 23.6458 8.20841 23.6458C9.08341 23.6458 9.66675 24.2292 9.66675 25.1042C9.66675 25.9792 9.08341 26.5625 8.20841 26.5625ZM8.20841 20.7292C7.33341 20.7292 6.75008 20.1458 6.75008 19.2708C6.75008 18.3958 7.33341 17.8125 8.20841 17.8125C9.08341 17.8125 9.66675 18.3958 9.66675 19.2708C9.66675 20.1458 9.08341 20.7292 8.20841 20.7292ZM15.5001 26.5625C14.6251 26.5625 14.0417 25.9792 14.0417 25.1042C14.0417 24.2292 14.6251 23.6458 15.5001 23.6458C16.3751 23.6458 16.9584 24.2292 16.9584 25.1042C16.9584 25.9792 16.3751 26.5625 15.5001 26.5625ZM15.5001 20.7292C14.6251 20.7292 14.0417 20.1458 14.0417 19.2708C14.0417 18.3958 14.6251 17.8125 15.5001 17.8125C16.3751 17.8125 16.9584 18.3958 16.9584 19.2708C16.9584 20.1458 16.3751 20.7292 15.5001 20.7292ZM22.7917 26.5625C21.9167 26.5625 21.3334 25.9792 21.3334 25.1042C21.3334 24.2292 21.9167 23.6458 22.7917 23.6458C23.6667 23.6458 24.2501 24.2292 24.2501 25.1042C24.2501 25.9792 23.6667 26.5625 22.7917 26.5625ZM22.7917 20.7292C21.9167 20.7292 21.3334 20.1458 21.3334 19.2708C21.3334 18.3958 21.9167 17.8125 22.7917 17.8125C23.6667 17.8125 24.2501 18.3958 24.2501 19.2708C24.2501 20.1458 23.6667 20.7292 22.7917 20.7292ZM27.1667 11.9792H3.83341V7.60418C3.83341 6.72918 4.41675 6.14585 5.29175 6.14585H6.75008V7.60418C6.75008 8.47918 7.33341 9.06252 8.20841 9.06252C9.08341 9.06252 9.66675 8.47918 9.66675 7.60418V6.14585H21.3334V7.60418C21.3334 8.47918 21.9167 9.06252 22.7917 9.06252C23.6667 9.06252 24.2501 8.47918 24.2501 7.60418V6.14585H25.7084C26.5834 6.14585 27.1667 6.72918 27.1667 7.60418V11.9792Z" fill="#4C7DFE"/>
</svg>
