<svg width="35" height="35" viewBox="0 0 35 35" fill="none" xmlns="http://www.w3.org/2000/svg">
<path d="M3.6458 12.9792L16.7708 20.5625C17.0625 20.7083 17.2083 20.7083 17.5 20.7083C17.7916 20.7083 17.9375 20.7083 18.2291 20.5625L31.3541 12.9792C31.6458 12.8333 31.7916 12.6875 31.9375 12.3958C32.2291 11.6667 32.0833 10.7917 31.3541 10.3542L18.2291 2.77083C17.7916 2.47916 17.2083 2.47916 16.7708 2.77083L3.6458 10.3542C3.35414 10.5 3.2083 10.6458 3.06247 10.9375C2.7708 11.6667 2.91664 12.5417 3.6458 12.9792ZM31.3541 16.1875L31.0625 16.0417L18.2291 23.4792C17.7916 23.7708 17.2083 23.7708 16.7708 23.4792L3.93747 16.0417L3.6458 16.1875C2.91664 16.625 2.7708 17.5 3.06247 18.2292C3.2083 18.5208 3.35414 18.6667 3.6458 18.8125L16.7708 26.3958C17.2083 26.6875 17.7916 26.6875 18.2291 26.3958L31.3541 18.8125C32.0833 18.375 32.2291 17.5 31.9375 16.7708C31.7916 16.4792 31.6458 16.3333 31.3541 16.1875ZM31.3541 22.0208L31.0625 21.875L18.2291 29.3125C17.7916 29.6042 17.2083 29.6042 16.7708 29.3125L3.93747 21.875L3.6458 22.0208C2.91664 22.4583 2.7708 23.3333 3.06247 24.0625C3.2083 24.3542 3.35414 24.5 3.6458 24.6458L16.7708 32.2292C17.2083 32.5208 17.7916 32.5208 18.2291 32.2292L31.3541 24.6458C32.0833 24.2083 32.2291 23.3333 31.9375 22.6042C31.7916 22.3125 31.6458 22.1667 31.3541 22.0208Z" fill="#4C7DFE"/>
</svg>
